<svg xmlns="http://www.w3.org/2000/svg" width="32" height="27" viewBox="0 0 32 27"><g><g><g><path fill="#fadd05" d="M31.505.408H.631v20.84H19.74l5.921 5.266v-5.266h5.844z"/></g><g><path fill="#fadd05" d="M31.505.408H16.068v20.84h3.672l5.921 5.266v-5.266h5.844z"/></g><g><path fill="#fff" d="M9.131 9.557a.382.382 0 1 1 .382-.382h1.81A2.194 2.194 0 0 0 9.13 6.984a2.194 2.194 0 0 0-2.191 2.19c0 1.209.983 2.192 2.191 2.192a.554.554 0 1 1-.554.553H6.768a2.365 2.365 0 0 0 2.363 2.363 2.365 2.365 0 0 0 2.363-2.363A2.365 2.365 0 0 0 9.13 9.557z"/></g><g><path fill="#fff" d="M23.005 9.557a.382.382 0 1 1 .382-.382h1.81a2.194 2.194 0 0 0-2.192-2.191 2.193 2.193 0 0 0-2.19 2.19c0 1.209.982 2.192 2.19 2.192a.554.554 0 1 1-.553.553h-1.81a2.365 2.365 0 0 0 2.363 2.363 2.365 2.365 0 0 0 2.363-2.363 2.365 2.365 0 0 0-2.363-2.362z"/></g><g><path fill="#fff" d="M17.526 6.984c-.55 0-1.056.189-1.458.505a2.35 2.35 0 0 0-1.458-.505 2.365 2.365 0 0 0-2.363 2.362v4.73h1.81v-4.73a.554.554 0 0 1 1.107 0v4.73h1.809v-4.73a.554.554 0 0 1 1.107 0v4.73h1.809v-4.73a2.365 2.365 0 0 0-2.363-2.362z"/></g><g><path fill="#fff" d="M17.526 6.984c-.55 0-1.056.189-1.458.505v6.588h.905v-4.73a.554.554 0 0 1 1.107 0v4.73h1.809v-4.73a2.365 2.365 0 0 0-2.363-2.363z"/></g></g></g></svg>