<svg xmlns="http://www.w3.org/2000/svg" width="25" height="27" viewBox="0 0 25 27"><g><g><path fill="#157efb" d="M5.983 12.655v.962h12.508v-.962zm0-2.886v.962h12.508v-.962zm0-2.887v.962h12.508v-.962zm2.974-3.849l3.28-2.886 3.28 2.886zm8.75 13.593l3.671-3.105v-5.33l2.887 2.54v13.476a1.924 1.924 0 0 1-1.928 1.919h-20.2A1.919 1.919 0 0 1 .21 24.207V10.731l2.886-2.54v5.33l3.671 3.105 2.103 1.802-5.7 4.885.778.777 5.764-4.94.02.017 5.026-.022 5.769 4.945.777-.777-5.7-4.885 2.103-1.802zm-1.644-.122l-1.736 1.458h-4.253L8.36 16.504zm-8.836-.962L4.06 12.848V4.96a.96.96 0 0 1 .962-.964h14.433c.524 0 .962.431.962.964v7.888l-3.207 2.694z"/></g></g></svg>