<svg xmlns="http://www.w3.org/2000/svg" width="20" height="4" viewBox="0 0 20 4"><defs><clipPath id="9aola"><path fill="#fff" d="M0 2a2 2 0 1 1 4 0 2 2 0 0 1-4 0z"/></clipPath><clipPath id="9aolb"><path fill="#fff" d="M8 2a2 2 0 1 1 4 0 2 2 0 0 1-4 0z"/></clipPath><clipPath id="9aolc"><path fill="#fff" d="M16 2a2 2 0 1 1 4 0 2 2 0 0 1-4 0z"/></clipPath></defs><g><g><g><path fill="#707070" d="M0 2a2 2 0 1 1 4 0 2 2 0 0 1-4 0z"/><path fill="none" stroke="#707070" stroke-miterlimit="20" stroke-width="2" d="M0 2a2 2 0 1 1 4 0 2 2 0 0 1-4 0z" clip-path="url(&quot;#9aola&quot;)"/></g><g><path fill="#707070" d="M8 2a2 2 0 1 1 4 0 2 2 0 0 1-4 0z"/><path fill="none" stroke="#707070" stroke-miterlimit="20" stroke-width="2" d="M8 2a2 2 0 1 1 4 0 2 2 0 0 1-4 0z" clip-path="url(&quot;#9aolb&quot;)"/></g><g><path fill="#707070" d="M16 2a2 2 0 1 1 4 0 2 2 0 0 1-4 0z"/><path fill="none" stroke="#707070" stroke-miterlimit="20" stroke-width="2" d="M16 2a2 2 0 1 1 4 0 2 2 0 0 1-4 0z" clip-path="url(&quot;#9aolc&quot;)"/></g></g></g></svg>