<svg xmlns="http://www.w3.org/2000/svg" width="24" height="25" viewBox="0 0 24 25"><g><g><g><path fill="#4caf50" d="M11.948.383h-.006C5.322.383-.062 5.77-.062 12.391c0 2.626.846 5.06 2.286 7.038l-1.497 4.46 4.616-1.475a11.904 11.904 0 0 0 6.605 1.984c6.621 0 12.005-5.387 12.005-12.007C23.953 5.77 18.57.383 11.948.383z"/></g><g><path fill="#fafafa" d="M18.935 17.34c-.29.817-1.439 1.496-2.356 1.694-.628.133-1.447.24-4.206-.904-3.529-1.462-5.801-5.047-5.978-5.28-.17-.233-1.426-1.899-1.426-3.622 0-1.723.875-2.562 1.228-2.922.29-.296.768-.43 1.228-.43.148 0 .282.007.402.013.353.015.53.036.762.592.29.698.995 2.422 1.08 2.599.085.177.17.417.05.65-.112.24-.211.346-.388.55-.177.205-.345.36-.523.58-.162.19-.345.394-.14.747.204.345.909 1.497 1.948 2.421 1.34 1.193 2.427 1.575 2.815 1.737.29.12.635.091.847-.134.269-.29.6-.77.938-1.243.24-.339.543-.38.862-.26.324.112 2.04.96 2.392 1.135.353.178.585.262.671.41.084.149.084.847-.206 1.666z"/></g></g></g></svg>