<svg xmlns="http://www.w3.org/2000/svg" width="33" height="32" viewBox="0 0 33 32"><g><g><g><path fill="#0b5640" d="M11.753 23.252h2.163v8.111h-2.163z"/></g><g><path fill="#0b5640" d="M14.997 31.363h2.163V20.008l-2.163 2.884z"/></g><g><path fill="#0b5640" d="M18.242 18.926h2.163v12.437h-2.163z"/></g><g><path fill="#0b5640" d="M4.182 31.363V27.86l-3.066 3.504z"/></g><g><path fill="#0b5640" d="M5.264 31.363h2.163v-7.212l-2.163 2.472z"/></g><g><path fill="#0b5640" d="M8.508 23.252h2.163v8.111H8.508z"/></g><g><path fill="#0b5640" d="M21.486 18.926v12.437h2.163V18.07l-.858.857z"/></g><g><path fill="#0b5640" d="M27.434 5.948h-1.081v-.54H24.73a.541.541 0 0 0 0 1.081h1.081c.894 0 1.622.728 1.622 1.622 0 .895-.727 1.622-1.622 1.622v1.082h-1.081V9.733h-1.623V8.111h1.082v.541h1.622a.541.541 0 0 0 0-1.082h-1.081a1.624 1.624 0 0 1-1.623-1.622c0-.894.728-1.622 1.623-1.622V3.244h1.081v1.082h1.622zm-2.163-3.785a4.872 4.872 0 0 0-4.866 4.867 4.872 4.872 0 0 0 4.866 4.866 4.872 4.872 0 0 0 4.867-4.866 4.872 4.872 0 0 0-4.867-4.867z"/></g><g><path fill="#0b5640" d="M24.73 16.987v14.376h2.164V14.978c-.06.012-.122.016-.182.027z"/></g><g><path fill="#0b5640" d="M25.271 12.978a5.955 5.955 0 0 1-5.948-5.948 5.955 5.955 0 0 1 5.948-5.949A5.955 5.955 0 0 1 31.22 7.03a5.955 5.955 0 0 1-5.949 5.948zm0-12.978a7.038 7.038 0 0 0-7.03 7.03 7.038 7.038 0 0 0 7.03 7.03 7.038 7.038 0 0 0 7.03-7.03A7.038 7.038 0 0 0 25.271 0z"/></g><g><path fill="#0b5640" d="M27.975 31.363h2.163v-17.86a8.08 8.08 0 0 1-2.163 1.165z"/></g><g><path fill="#0b5640" d="M3.1 18.926h1.082v-2.163h1.082v-6.489H4.182V8.111H3.101v2.163H2.019v6.49h1.082z"/></g><g><path fill="#0b5640" d="M7.427 16.222h1.081V14.06H9.59V8.652H8.508V6.489H7.427v2.163H6.345v5.407h1.082z"/></g><g><path fill="#0b5640" d="M11.753 12.437h1.081v-2.163h1.082V5.948h-1.082V3.785h-1.081v2.163H10.67v4.326h1.082z"/></g><g><path fill="#0b5640" d="M23.526 14.947a8.035 8.035 0 0 1-1.173-.357l-1.09 1.092h-4.348l-3.786 4.326H6.65L0 27.21l.794.734 6.328-6.856h6.498l3.786-4.326h4.304z"/></g></g></g></svg>