<svg xmlns="http://www.w3.org/2000/svg" width="33" height="33" viewBox="0 0 33 33"><g><g><g><path fill="#0b5640" d="M9.7 19.401h.571c.63 0 1.141-.512 1.141-1.141v-4.565a5.714 5.714 0 0 0-3.47-5.249 2.285 2.285 0 0 1-2.236 1.825A2.286 2.286 0 0 1 3.47 8.446 5.714 5.714 0 0 0 0 13.695v4.565c0 .63.512 1.141 1.141 1.141h.57v-7.989h1.142v20.543a1.142 1.142 0 0 0 2.283 0V17.689h1.14v14.266a1.142 1.142 0 0 0 2.283 0V11.412h1.142z"/></g><g><path fill="#0b5640" d="M3 3.5C3 1.567 4.343 0 6 0s3 1.567 3 3.5S7.657 7 6 7 3 5.433 3 3.5z"/></g><g><path fill="#0b5640" d="M29.672 11.412A2.285 2.285 0 0 1 27.39 9.13a2.285 2.285 0 0 1 2.282-2.283 2.285 2.285 0 0 1 2.283 2.283 2.285 2.285 0 0 1-2.283 2.282zm1.388 5.321l-.807-.806.807-.807.807.807zm-1.614 1.615l-.807-.807.807-.807.806.807zM27.83 19.96l-.806-.806.806-.807.807.807zm-7.86 5.146a6.284 6.284 0 0 1-6.276-6.277 6.284 6.284 0 0 1 6.277-6.276 6.284 6.284 0 0 1 6.276 6.276 6.284 6.284 0 0 1-6.276 6.277zm-3.826 5.735l-3.995-3.994.807-.807 3.994 3.994zm-5.805-5.804l.807-.807 1.24 1.24-.807.807zM30.577 5.706H22.49l-9.936 9.937v2.617a2.285 2.285 0 0 1-2.283 2.282h-.57v5.47l6.847 6.848 16.548-16.548V8.225z"/></g><g><path fill="#0b5640" d="M4.576 8.102c.058.575.54 1.028 1.13 1.028.59 0 1.072-.453 1.13-1.028a5.67 5.67 0 0 0-2.26 0z"/></g><g><path fill="#0b5640" d="M23.966 19.401h-1.141V18.26h1.141zm-3.994-1.141c.943 0 1.712.768 1.712 1.712v1.712h-1.142v1.14h-1.141V21.58a1.71 1.71 0 0 1-1.141-1.607H19.4c0 .315.256.57.57.57h.571v-.57a.57.57 0 0 0-.57-.571 1.714 1.714 0 0 1-1.712-1.712v-1.712H19.4v-1.14h1.141v1.245a1.71 1.71 0 0 1 1.142 1.607h-1.142a.57.57 0 0 0-.57-.57H19.4v.57c0 .315.256.57.57.57zM17.119 19.4h-1.142V18.26h1.142zm2.853-5.706a5.141 5.141 0 0 0-5.136 5.135 5.141 5.141 0 0 0 5.136 5.136 5.141 5.141 0 0 0 5.135-5.136 5.141 5.141 0 0 0-5.135-5.135z"/></g><g><path fill="#0b5640" d="M29 10a1 1 0 1 1 2 0 1 1 0 0 1-2 0z"/></g></g></g></svg>