<svg xmlns="http://www.w3.org/2000/svg" width="35" height="35" viewBox="0 0 35 35"><g><g><g><path fill="#0b5640" d="M34.213 11.39L17.956.19a1.086 1.086 0 0 0-1.23 0L.47 11.39c-.295.202-.47.536-.47.893v20.953c0 .797.647 1.445 1.445 1.445h2.89V17.34c0-.798.647-1.446 1.445-1.446H28.9c.798 0 1.446.648 1.446 1.445v17.34h2.89c.798 0 1.445-.647 1.445-1.444V12.283c0-.357-.175-.69-.468-.893z"/></g><g><path fill="#0b5640" d="M13.367 27.456v1.083a1.084 1.084 0 0 1-2.168 0v-1.083H8.67a.723.723 0 0 0-.722.722v5.78c0 .4.323.723.722.723h7.225a.723.723 0 0 0 .723-.723v-5.78a.723.723 0 0 0-.723-.722z"/></g><g><path fill="#0b5640" d="M23.482 27.456v1.083a1.084 1.084 0 0 1-2.168 0v-1.083h-2.529a.723.723 0 0 0-.722.722v5.78c0 .4.324.723.722.723h7.226a.723.723 0 0 0 .722-.723v-5.78a.723.723 0 0 0-.722-.722z"/></g><g><path fill="#0b5640" d="M18.424 18.785v1.084a1.084 1.084 0 0 1-2.167 0v-1.084h-2.53a.723.723 0 0 0-.722.723v5.78c0 .399.324.723.723.723h7.225a.723.723 0 0 0 .723-.723v-5.78a.723.723 0 0 0-.723-.723z"/></g></g></g></svg>