<svg xmlns="http://www.w3.org/2000/svg" width="22" height="25" viewBox="0 0 22 25"><g><g><g><path fill="#105642" d="M12.898 21.413a2.838 2.838 0 0 0-2.84-2.836 2.838 2.838 0 0 0-2.84 2.836 2.838 2.838 0 0 0 2.84 2.835c1.568 0 2.84-1.27 2.84-2.835z"/></g><g><path fill="#105642" d="M10.058 18.577a2.84 2.84 0 0 0-.826.122 2.837 2.837 0 0 1 2.015 2.714c0 1.279-.849 2.36-2.015 2.713a2.838 2.838 0 0 0 3.666-2.713 2.838 2.838 0 0 0-2.84-2.836z"/></g><g><path fill="#105642" d="M10.39 4.864a1.682 1.682 0 1 1-.664-3.298 1.682 1.682 0 1 1 .664 3.298z"/></g><g><path fill="#105642" d="M11.71 2.884a1.684 1.684 0 0 0-2.23-1.249 1.682 1.682 0 0 1 0 3.16 1.682 1.682 0 0 0 2.23-1.911z"/></g><g><path fill="#105642" d="M17.092 20.938H3.023a2.277 2.277 0 0 1-2.279-2.275 2.3 2.3 0 0 1 .858-1.791l.452-.364a4.432 4.432 0 0 0 1.653-3.452v-2.391c0-3.529 2.865-6.39 6.4-6.39 3.533 0 6.398 2.861 6.398 6.39V13.1c0 1.316.585 2.564 1.598 3.406l.44.366a2.3 2.3 0 0 1 .828 1.768v.023a2.277 2.277 0 0 1-2.279 2.275z"/></g><g><path fill="#105642" d="M18.543 16.872l-.44-.366a4.432 4.432 0 0 1-1.598-3.406v-2.436c0-3.528-2.865-6.388-6.399-6.388-.626 0-1.23.09-1.803.257a6.392 6.392 0 0 1 4.596 6.131V13.1c0 1.316.586 2.563 1.598 3.406l.44.366a2.3 2.3 0 0 1 .829 1.768v.023a2.277 2.277 0 0 1-2.28 2.275h3.606a2.277 2.277 0 0 0 2.28-2.275v-.023a2.3 2.3 0 0 0-.83-1.768z"/></g><g><path fill="#fc476e" d="M21.562 5.483A5.488 5.488 0 0 0 16.07 0a5.488 5.488 0 0 0-5.492 5.483 5.488 5.488 0 0 0 5.492 5.483 5.488 5.488 0 0 0 5.492-5.483z"/></g><g><path fill="#fc476e" d="M17.544.2a5.474 5.474 0 0 1 2.314 4.473 5.488 5.488 0 0 1-5.492 5.483 5.5 5.5 0 0 1-1.474-.2 5.472 5.472 0 0 0 3.178 1.01 5.488 5.488 0 0 0 5.492-5.483c0-2.518-1.7-4.64-4.018-5.283z"/></g><g><path fill="#e3faff" d="M16.07 8.044a.383.383 0 0 1-.383-.383V3.97l-.143.13a.384.384 0 0 1-.517-.565l.785-.715a.384.384 0 0 1 .641.283v4.56a.383.383 0 0 1-.383.382z"/></g></g></g></svg>