<svg xmlns="http://www.w3.org/2000/svg" width="33" height="31" viewBox="0 0 33 31"><g><g><g><g><path fill="#0b5640" d="M10.33 14.52a4.336 4.336 0 0 1-4.332-4.33 4.336 4.336 0 0 1 4.331-4.331 4.336 4.336 0 0 1 4.331 4.33 4.336 4.336 0 0 1-4.33 4.332zm4.343 2.645a8.278 8.278 0 0 0 1.77-1.487l1.863 1.075 1.696-2.937-1.859-1.073a8.178 8.178 0 0 0 .401-2.28l2.115-.373-.59-3.34-2.113.373a8.222 8.222 0 0 0-1.16-2.002l1.382-1.647-2.598-2.18L14.2 2.94a8.163 8.163 0 0 0-2.175-.793V0H8.634v2.146c-.77.162-1.5.432-2.175.793L5.08 1.294 2.48 3.474l1.382 1.647a8.226 8.226 0 0 0-1.16 2.002L.59 6.75 0 10.09l2.114.373a8.18 8.18 0 0 0 .402 2.28l-1.86 1.073 1.697 2.937 1.862-1.075a8.278 8.278 0 0 0 1.77 1.488l-.734 2.02 3.187 1.159.734-2.017a8.261 8.261 0 0 0 2.315 0l.734 2.017 3.187-1.16z"/></g><g><path fill="#0b5640" d="M23.112 26.184a3.104 3.104 0 0 1-3.499-2.643 3.103 3.103 0 0 1 2.643-3.499 3.104 3.104 0 0 1 3.499 2.643 3.104 3.104 0 0 1-2.643 3.499zm6.138-6.472l-1.462.473a5.886 5.886 0 0 0-1.02-1.305l.817-1.304-2.057-1.289-.817 1.303a5.832 5.832 0 0 0-1.62-.348l-.212-1.521-2.404.335.212 1.521c-.53.191-1.021.455-1.463.778l-1.142-1.03-1.626 1.802 1.142 1.031a5.886 5.886 0 0 0-.624 1.535l-1.536-.056-.088 2.426 1.536.056c.097.56.271 1.088.51 1.576l-1.212.945 1.493 1.915 1.214-.947a5.94 5.94 0 0 0 1.402.88l-.321 1.505 2.374.507.321-1.502a5.89 5.89 0 0 0 1.641-.23l.72 1.358 2.145-1.137-.72-1.36a5.936 5.936 0 0 0 1.108-1.23l1.426.58.913-2.25-1.424-.578a5.88 5.88 0 0 0 .06-1.656l1.462-.473z"/></g><g><path fill="#0b5640" d="M27.958 12.326a2.45 2.45 0 0 1-3.315-.995 2.45 2.45 0 0 1 .994-3.315 2.45 2.45 0 0 1 3.316.994 2.45 2.45 0 0 1-.995 3.316zm4.567-1.027l.057-1.916-1.212-.036a4.648 4.648 0 0 0-.411-1.242l.952-.752-1.188-1.504-.952.752a4.644 4.644 0 0 0-1.114-.686l.246-1.189-1.876-.389-.247 1.189c-.432 0-.867.062-1.294.188l-.575-1.068-1.688.909.575 1.068c-.339.286-.63.617-.869.977l-1.127-.449-.71 1.78 1.13.45a4.644 4.644 0 0 0-.04 1.307l-1.153.381.602 1.82 1.152-.381c.225.388.5.73.81 1.027l-.636 1.032 1.63 1.007.639-1.034c.41.147.842.237 1.28.266l.175 1.202 1.896-.277-.174-1.201a4.633 4.633 0 0 0 1.151-.62l.906.807 1.275-1.432-.907-.807c.218-.381.38-.79.483-1.215z"/></g></g></g></g></svg>